<svg xmlns="http://www.w3.org/2000/svg" viewBox="0 0 256 256" width="32" height="32" role="img" aria-labelledby="t">
  <title id="t">grr</title>
  <g shape-rendering="crispEdges">
    <g fill="#7C2D12">
      <rect x="48" y="16" width="16" height="16"/><rect x="192" y="16" width="16" height="16"/>
      <rect x="32" y="32" width="16" height="16"/><rect x="64" y="32" width="16" height="16"/><rect x="176" y="32" width="16" height="16"/><rect x="208" y="32" width="16" height="16"/>
      <rect x="16" y="48" width="16" height="16"/><rect x="64" y="48" width="16" height="16"/><rect x="176" y="48" width="16" height="16"/><rect x="224" y="48" width="16" height="16"/>
      <rect x="16" y="64" width="16" height="16"/><rect x="64" y="64" width="32" height="16"/><rect x="160" y="64" width="32" height="16"/><rect x="224" y="64" width="16" height="16"/>
      <rect x="16" y="80" width="16" height="16"/><rect x="224" y="80" width="16" height="16"/>
      <rect x="32" y="96" width="16" height="16"/><rect x="208" y="96" width="16" height="16"/>
      <rect x="32" y="112" width="16" height="16"/><rect x="208" y="112" width="16" height="16"/>
      <rect x="32" y="128" width="16" height="16"/><rect x="112" y="128" width="32" height="16"/><rect x="208" y="128" width="16" height="16"/>
      <rect x="16" y="144" width="16" height="16"/><rect x="224" y="144" width="16" height="16"/>
      <rect x="32" y="160" width="16" height="16"/><rect x="208" y="160" width="16" height="16"/>
      <rect x="48" y="176" width="16" height="16"/><rect x="96" y="176" width="16" height="16"/><rect x="144" y="176" width="16" height="16"/><rect x="192" y="176" width="16" height="16"/>
      <rect x="32" y="192" width="16" height="16"/><rect x="80" y="192" width="16" height="16"/><rect x="160" y="192" width="16" height="16"/><rect x="208" y="192" width="16" height="16"/>
      <rect x="32" y="208" width="16" height="16"/><rect x="64" y="208" width="16" height="16"/><rect x="176" y="208" width="16" height="16"/><rect x="208" y="208" width="16" height="16"/>
    </g>
    <g fill="#F97316">
      <rect x="48" y="48" width="16" height="16"/><rect x="192" y="48" width="16" height="16"/>
      <rect x="32" y="64" width="32" height="16"/><rect x="192" y="64" width="32" height="16"/>
      <rect x="64" y="80" width="160" height="16"/>
      <rect x="48" y="96" width="32" height="16"/><rect x="112" y="96" width="32" height="16"/><rect x="176" y="96" width="32" height="16"/>
      <rect x="48" y="112" width="32" height="16"/><rect x="112" y="112" width="32" height="16"/><rect x="176" y="112" width="32" height="16"/>
      <rect x="48" y="128" width="64" height="16"/><rect x="144" y="128" width="64" height="16"/>
      <rect x="32" y="144" width="192" height="16"/>
      <rect x="48" y="160" width="160" height="16"/>
      <rect x="64" y="176" width="32" height="16"/><rect x="160" y="176" width="32" height="16"/>
      <rect x="48" y="192" width="32" height="16"/><rect x="176" y="192" width="32" height="16"/>
      <rect x="48" y="208" width="16" height="16"/><rect x="192" y="208" width="16" height="16"/>
    </g>
    <g fill="#FDBA74">
      <rect x="48" y="32" width="16" height="16"/><rect x="192" y="32" width="16" height="16"/>
      <rect x="32" y="48" width="16" height="16"/><rect x="208" y="48" width="16" height="16"/>
      <rect x="32" y="80" width="32" height="16"/>
    </g>
    <g fill="#FFFFFF">
      <rect x="80" y="96" width="32" height="16"/><rect x="144" y="96" width="32" height="16"/>
    </g>
    <g fill="#1C1917">
      <rect x="80" y="112" width="32" height="16"/><rect x="144" y="112" width="32" height="16"/>
    </g>
  </g>
</svg>
