<svg xmlns="http://www.w3.org/2000/svg" width="480" height="360" viewBox="0 0 480 360" role="img" aria-labelledby="title desc"><title id="title">Chat illustration</title><desc id="desc">A dimensional pair of speech bubbles with a single reaction dot.</desc><g aria-hidden="true"><ellipse cx="240" cy="304" rx="152" ry="20" fill="#3B1D0B" opacity=".05"/><ellipse cx="240" cy="300" rx="136" ry="16" fill="#3B1D0B" opacity=".06"/><ellipse cx="240" cy="296" rx="116" ry="12" fill="#3B1D0B" opacity=".07"/></g><g shape-rendering="crispEdges"><polygon points="120,92 340,92 364,116 364,220 228,220 188,264 192,220 120,220" fill="#3B1D0B"/><polygon points="132,104 336,104 352,120 352,204 224,204 204,232 208,204 132,204" fill="#C2410C"/><polygon points="132,104 336,104 352,120 336,132 132,132" fill="#EA580C"/><polygon points="168,144 244,144 264,164 264,212 168,212 148,232 152,212 148,164" fill="#3B1D0B"/><polygon points="180,156 240,156 252,168 252,200 180,200 164,216 168,200 164,168" fill="#FFF8F0"/><polygon points="292,236 364,236 384,256 384,292 312,292 300,316 300,292 292,292" fill="#3B1D0B"/><polygon points="304,248 364,248 372,260 372,280 304,280 304,292 292,280 292,260" fill="#34A853"/><rect x="320" y="260" width="16" height="16" fill="#FFF3E4"/><rect x="196" y="168" width="24" height="16" fill="#F97316"/><rect x="240" y="184" width="16" height="16" fill="#C2410C"/></g>
</svg>
